<?xml version="1.0" standalone="no"?>
<!DOCTYPE svg PUBLIC "-//W3C//DTD SVG 20010904//EN"
 "http://www.w3.org/TR/2001/REC-SVG-20010904/DTD/svg10.dtd">
<svg version="1.0" xmlns="http://www.w3.org/2000/svg"
 width="4726.000000pt" height="4726.000000pt" viewBox="0 0 4726.000000 4726.000000"
 preserveAspectRatio="xMidYMid meet">
<metadata>
Created by potrace 1.14, written by Peter Selinger 2001-2017
</metadata>
<g transform="translate(0.000000,4726.000000) scale(0.100000,-0.100000)"
fill="#000000" stroke="none">
<path d="M23038 47255 c-2 -2 -95 -6 -208 -9 -113 -4 -239 -9 -280 -11 -41 -2
-129 -6 -195 -10 -170 -8 -270 -14 -340 -20 -33 -2 -98 -7 -145 -10 -103 -7
-191 -14 -245 -20 -22 -2 -74 -7 -115 -10 -41 -3 -88 -7 -105 -9 -16 -3 -67
-7 -112 -11 -46 -3 -91 -8 -100 -9 -10 -2 -49 -7 -88 -10 -72 -7 -213 -23
-275 -31 -19 -3 -55 -7 -80 -9 -25 -3 -58 -7 -75 -10 -16 -2 -57 -7 -90 -11
-33 -3 -87 -10 -120 -15 -33 -5 -80 -12 -105 -15 -25 -3 -56 -8 -70 -10 -14
-2 -45 -7 -70 -10 -25 -3 -56 -8 -70 -10 -14 -2 -45 -7 -70 -10 -25 -3 -70
-10 -100 -15 -30 -5 -71 -12 -90 -15 -19 -3 -46 -7 -60 -10 -14 -3 -41 -7 -60
-9 -19 -2 -87 -14 -150 -26 -63 -11 -131 -23 -150 -26 -19 -2 -44 -6 -55 -9
-83 -16 -135 -26 -165 -31 -19 -3 -100 -19 -180 -35 -80 -15 -164 -31 -185
-35 -22 -3 -42 -7 -45 -9 -3 -2 -75 -18 -160 -35 -85 -17 -182 -38 -215 -47
-33 -8 -71 -17 -85 -19 -14 -3 -92 -21 -175 -41 -82 -20 -169 -40 -193 -44
-24 -5 -47 -11 -52 -14 -4 -3 -36 -11 -71 -19 -191 -42 -908 -240 -1129 -310
-41 -14 -149 -48 -240 -76 -305 -96 -635 -207 -910 -307 -185 -67 -235 -85
-270 -99 -19 -7 -134 -51 -255 -98 -188 -73 -573 -228 -670 -271 -16 -8 -56
-25 -88 -39 -32 -14 -59 -26 -61 -26 -4 0 -351 -154 -451 -200 -38 -18 -128
-59 -200 -92 -154 -71 -759 -371 -930 -461 -452 -237 -948 -520 -1458 -832
-218 -133 -855 -549 -993 -648 -27 -19 -80 -57 -119 -83 -284 -195 -815 -590
-1115 -829 -48 -38 -105 -83 -126 -100 -127 -100 -608 -499 -644 -535 -3 -3
-36 -32 -75 -65 -38 -33 -86 -74 -105 -91 -189 -168 -251 -223 -350 -314 -63
-58 -146 -135 -185 -171 -38 -36 -110 -103 -160 -150 -146 -136 -749 -742
-900 -903 -77 -82 -156 -167 -176 -188 -20 -21 -69 -75 -110 -120 -41 -46 -85
-94 -99 -109 -14 -15 -38 -42 -54 -60 -17 -19 -60 -68 -96 -109 -37 -41 -78
-88 -91 -104 -13 -16 -31 -36 -40 -45 -8 -9 -55 -63 -105 -121 -49 -58 -91
-107 -94 -110 -3 -3 -25 -30 -50 -60 -25 -30 -47 -57 -50 -60 -6 -5 -167 -202
-291 -355 -523 -645 -1100 -1455 -1581 -2220 -105 -167 -375 -612 -407 -672
-12 -21 -26 -45 -31 -53 -37 -57 -264 -463 -350 -625 -29 -55 -60 -113 -70
-130 -77 -134 -415 -809 -540 -1080 -15 -33 -44 -96 -65 -140 -20 -44 -43 -93
-50 -110 -7 -16 -28 -61 -45 -100 -18 -38 -59 -133 -92 -210 -33 -77 -68 -158
-78 -180 -23 -52 -59 -137 -116 -277 -93 -227 -136 -337 -205 -518 -39 -102
-82 -213 -95 -248 -99 -256 -415 -1193 -439 -1297 -2 -11 -13 -49 -25 -85 -24
-76 -136 -462 -155 -535 -7 -27 -30 -111 -50 -185 -31 -117 -111 -427 -120
-470 -2 -8 -20 -82 -40 -165 -38 -156 -73 -312 -81 -355 -3 -14 -12 -54 -20
-90 -20 -88 -142 -695 -150 -745 -3 -22 -9 -58 -14 -80 -5 -22 -18 -96 -30
-165 -11 -69 -23 -136 -25 -150 -3 -14 -8 -45 -11 -70 -3 -25 -8 -54 -10 -65
-3 -11 -7 -36 -10 -55 -24 -155 -34 -221 -39 -260 -3 -25 -10 -72 -15 -105 -5
-33 -12 -80 -15 -105 -3 -25 -8 -56 -10 -70 -2 -14 -6 -47 -9 -75 -3 -27 -8
-66 -11 -85 -3 -19 -7 -55 -10 -80 -3 -25 -9 -79 -14 -120 -6 -41 -13 -102
-16 -135 -3 -33 -8 -71 -10 -85 -2 -14 -7 -56 -10 -95 -4 -38 -8 -81 -10 -95
-1 -14 -6 -63 -10 -110 -4 -47 -9 -92 -10 -100 -2 -9 -6 -58 -10 -110 -4 -52
-8 -107 -10 -123 -2 -15 -7 -71 -10 -125 -4 -53 -9 -115 -11 -137 -1 -22 -6
-92 -9 -155 -3 -63 -8 -137 -10 -165 -3 -27 -7 -113 -11 -190 -3 -77 -7 -171
-9 -210 -23 -419 -23 -1474 0 -1935 2 -47 6 -148 10 -226 3 -77 7 -165 10
-195 2 -30 6 -97 10 -149 10 -174 16 -257 30 -415 2 -22 6 -76 10 -120 3 -44
7 -96 10 -115 3 -19 7 -66 10 -105 3 -38 8 -89 10 -112 3 -24 7 -64 10 -90 3
-27 8 -71 11 -100 3 -29 7 -67 9 -85 1 -18 5 -53 8 -78 4 -25 9 -67 12 -95 3
-27 7 -61 10 -75 3 -14 7 -47 9 -75 3 -27 10 -81 15 -120 6 -38 12 -88 15
-110 10 -78 15 -111 25 -175 5 -36 13 -85 16 -110 6 -44 11 -79 20 -131 3 -14
7 -41 9 -60 8 -56 16 -109 33 -204 8 -49 17 -101 19 -115 3 -24 9 -60 19 -110
3 -14 8 -38 10 -55 18 -103 113 -590 131 -670 2 -11 7 -33 10 -50 3 -16 14
-70 25 -120 12 -49 23 -101 25 -115 5 -21 57 -247 134 -570 10 -41 35 -138 55
-215 20 -77 38 -147 40 -155 2 -8 22 -82 45 -165 23 -82 43 -157 45 -165 2 -8
20 -71 40 -140 67 -225 75 -255 79 -270 20 -78 203 -641 308 -945 83 -241 316
-868 353 -950 8 -17 31 -75 53 -130 73 -187 234 -564 329 -775 14 -30 43 -94
64 -142 21 -48 42 -95 48 -105 5 -10 24 -49 42 -88 77 -169 110 -237 250 -520
188 -379 294 -583 475 -910 12 -22 35 -65 52 -95 16 -30 53 -95 81 -143 28
-49 51 -90 51 -92 0 -5 334 -567 402 -675 22 -36 48 -77 57 -92 246 -408 711
-1088 1105 -1618 88 -118 164 -219 168 -225 5 -5 79 -100 165 -210 86 -110
168 -214 182 -231 14 -18 49 -60 76 -94 28 -35 130 -160 228 -278 159 -191
207 -247 242 -286 6 -6 59 -67 119 -136 60 -69 141 -160 180 -203 39 -44 80
-89 91 -101 28 -31 191 -209 238 -260 303 -325 815 -837 1143 -1141 187 -174
257 -239 270 -250 6 -5 44 -40 85 -76 41 -36 119 -105 174 -154 55 -48 116
-101 135 -119 19 -17 62 -54 95 -81 33 -28 62 -53 65 -56 8 -9 354 -296 470
-389 58 -47 112 -90 120 -97 49 -40 232 -183 335 -261 66 -50 125 -95 130
-100 6 -4 55 -42 110 -82 55 -41 104 -79 110 -83 5 -4 35 -26 65 -48 30 -22
64 -47 75 -55 352 -257 925 -646 1275 -864 91 -56 188 -117 215 -135 200 -131
850 -505 1255 -723 313 -169 916 -470 1205 -602 33 -15 85 -39 115 -53 244
-112 468 -209 715 -312 50 -20 108 -45 130 -55 22 -10 94 -39 159 -64 66 -26
133 -53 150 -60 17 -8 58 -24 91 -36 65 -24 93 -35 128 -50 19 -8 144 -55 327
-122 362 -133 1040 -359 1305 -435 66 -19 70 -20 145 -42 199 -59 243 -72 425
-121 241 -66 808 -207 1020 -254 258 -57 557 -121 611 -130 17 -3 100 -19 185
-35 200 -38 206 -40 304 -56 17 -3 82 -14 145 -25 63 -11 142 -25 175 -30 33
-5 76 -12 95 -15 173 -28 193 -30 274 -40 27 -3 51 -7 55 -9 3 -2 35 -7 71
-11 36 -4 73 -9 84 -11 10 -2 44 -6 75 -9 31 -4 63 -8 71 -10 8 -2 42 -7 75
-10 33 -3 71 -8 85 -10 14 -3 48 -7 75 -10 28 -3 64 -7 80 -10 17 -2 62 -7
100 -10 39 -4 80 -8 93 -10 13 -2 53 -7 90 -10 37 -4 77 -8 89 -10 12 -2 61
-7 110 -10 48 -4 96 -9 105 -10 10 -2 61 -7 115 -10 53 -4 104 -8 114 -10 9
-2 68 -6 130 -10 63 -4 130 -9 149 -11 47 -5 304 -20 485 -29 680 -34 1552
-38 2150 -10 383 18 407 19 570 30 44 3 116 7 160 10 44 3 105 7 135 10 83 7
167 14 250 20 41 4 86 8 100 10 14 2 61 6 105 10 44 3 91 8 105 10 14 2 61 6
104 10 43 4 87 8 97 10 10 2 46 6 81 10 35 3 74 8 88 10 14 2 52 7 85 10 33 3
71 8 85 10 14 2 50 7 80 10 30 3 134 17 230 31 96 13 193 26 215 29 22 3 65
10 95 15 30 5 73 12 95 15 23 3 52 8 65 10 14 3 43 7 65 10 22 3 94 15 160 26
66 12 129 23 140 24 11 2 74 13 140 25 66 12 131 24 145 27 14 2 57 10 95 18
39 8 88 17 110 21 22 3 42 7 45 9 3 2 26 6 50 10 25 3 52 8 60 10 8 3 92 21
185 41 172 36 279 59 325 70 25 5 146 33 165 38 6 2 28 7 50 11 22 5 42 10 45
10 3 1 23 6 45 13 22 6 51 13 65 16 14 2 90 21 170 41 80 20 150 38 155 39 38
10 449 121 535 146 399 113 765 227 1150 358 96 33 204 69 240 81 36 13 74 26
85 31 24 10 110 42 185 68 149 53 695 263 800 309 19 8 44 19 55 23 285 120
482 204 526 223 30 14 101 46 159 72 58 26 128 57 155 70 28 13 82 38 120 55
39 18 104 48 145 67 207 96 837 414 1075 542 86 47 250 137 410 226 119 66
393 225 548 319 92 55 175 106 185 111 155 90 1024 653 1077 698 6 4 105 74
220 155 180 127 497 356 545 395 8 7 60 46 115 87 55 41 107 80 115 87 8 6 83
64 165 129 194 151 532 423 582 469 6 5 33 28 59 50 73 61 404 344 444 380 44
40 124 111 174 156 44 39 48 43 180 164 408 374 943 905 1291 1280 55 60 109
118 120 129 11 12 63 68 114 126 52 58 98 107 101 110 3 3 71 79 149 170 79
91 158 181 175 200 34 37 312 371 380 455 22 28 47 57 56 67 8 9 26 31 40 49
22 29 115 147 185 234 168 209 598 788 776 1043 234 338 499 737 676 1022 157
252 253 412 253 421 0 5 3 9 8 9 4 0 12 10 18 23 6 12 58 103 116 202 254 435
510 910 744 1383 124 251 364 756 364 767 0 2 15 36 34 77 48 104 66 145 136
308 34 80 68 159 75 175 73 168 246 604 330 830 20 55 41 109 46 120 4 11 18
47 29 80 12 33 32 89 45 125 218 607 460 1383 596 1910 16 63 41 156 54 205
29 107 108 428 121 495 3 14 10 43 16 65 5 22 12 49 14 60 2 11 15 72 29 135
30 129 93 430 101 475 2 17 13 71 23 120 11 50 22 108 25 130 3 22 8 51 11 65
11 50 26 126 31 160 3 19 9 58 14 85 6 28 12 68 16 90 3 22 7 47 9 55 3 8 7
33 10 55 3 22 8 51 10 65 3 14 7 39 9 55 16 102 26 163 30 182 3 12 7 46 10
75 4 29 8 62 10 73 6 32 15 96 22 150 3 28 8 59 10 70 2 11 7 44 10 74 3 30 8
64 10 75 2 12 6 45 10 74 3 29 7 62 9 72 2 10 7 50 10 87 4 37 8 79 10 93 3
14 7 50 10 80 3 30 7 71 10 90 3 19 7 62 10 95 3 33 7 74 9 90 2 17 7 64 10
105 4 41 8 86 11 100 2 14 7 68 11 120 3 52 8 108 9 124 2 15 7 72 10 125 4
53 8 116 10 141 2 25 7 95 10 155 3 61 8 128 10 150 2 22 7 105 11 185 3 80 7
181 9 225 23 516 23 1564 0 1940 -2 33 -6 128 -10 210 -3 83 -8 170 -10 195
-2 25 -6 99 -10 165 -4 66 -8 138 -10 160 -2 22 -6 76 -10 120 -3 44 -8 100
-10 125 -2 25 -7 81 -10 125 -4 44 -8 96 -10 115 -2 19 -6 62 -10 95 -3 33 -7
80 -10 105 -7 71 -13 130 -20 195 -3 33 -13 116 -21 185 -8 69 -17 145 -20
170 -3 25 -7 56 -9 70 -2 14 -7 52 -10 85 -4 33 -8 67 -10 75 -2 8 -7 38 -10
65 -3 28 -10 75 -15 105 -5 30 -12 78 -15 105 -3 28 -8 59 -10 70 -2 11 -7 40
-10 65 -3 25 -7 56 -10 70 -3 14 -7 43 -10 65 -3 22 -23 144 -45 270 -51 294
-47 273 -70 390 -10 55 -21 114 -24 130 -3 17 -10 55 -16 85 -6 30 -13 66 -16
80 -2 14 -13 66 -24 115 -20 95 -27 131 -36 180 -2 17 -7 38 -10 47 -3 9 -7
25 -9 35 -11 53 -37 170 -60 268 -14 61 -37 157 -50 215 -13 58 -38 159 -56
225 -17 66 -32 127 -34 135 -13 63 -172 644 -199 730 -8 25 -22 72 -31 105
-10 33 -23 76 -30 95 -7 19 -13 37 -12 40 1 7 -21 75 -143 460 -40 124 -76
234 -80 245 -5 11 -18 49 -30 85 -12 36 -25 74 -30 85 -5 11 -20 56 -35 100
-15 44 -42 121 -60 170 -18 50 -59 160 -90 245 -71 192 -191 505 -210 545 -8
17 -39 93 -70 170 -209 515 -424 987 -722 1585 -182 365 -254 503 -416 800
-55 101 -249 444 -300 530 -28 47 -80 134 -116 195 -36 60 -68 114 -71 120 -9
18 -70 117 -138 226 -37 59 -85 135 -106 170 -142 230 -486 745 -666 999 -47
65 -263 366 -284 395 -44 59 -154 207 -176 236 -14 18 -44 57 -67 88 -23 31
-46 61 -50 66 -5 6 -31 39 -58 75 -50 65 -81 106 -203 258 -99 123 -261 323
-285 352 -12 14 -56 66 -97 115 -72 88 -297 350 -352 410 -14 17 -35 40 -46
53 -11 12 -48 54 -82 92 -34 38 -70 78 -79 89 -14 16 -96 105 -214 235 -218
237 -814 840 -1058 1071 -251 237 -340 320 -459 425 -40 36 -81 72 -89 80 -9
9 -52 47 -96 85 -44 39 -82 73 -85 76 -8 9 -351 301 -410 349 -30 25 -61 51
-69 58 -10 10 -161 133 -336 275 -5 4 -62 49 -125 98 -63 50 -124 98 -135 107
-11 10 -36 28 -55 42 -19 13 -37 27 -40 30 -5 7 -465 351 -515 386 -16 11 -48
34 -71 50 -376 267 -555 390 -859 590 -104 68 -197 129 -205 134 -98 66 -667
415 -758 466 -20 11 -93 54 -162 93 -244 142 -469 268 -646 362 -43 23 -117
62 -164 87 -143 76 -677 344 -820 412 -181 85 -358 168 -395 185 -16 7 -57 25
-90 40 -114 52 -241 107 -380 167 -77 33 -153 65 -170 73 -16 7 -127 52 -245
100 -118 47 -224 90 -235 95 -47 21 -307 119 -640 241 -299 110 -1115 380
-1216 404 -9 2 -63 18 -120 35 -57 18 -120 35 -140 39 -19 4 -40 10 -45 13 -5
3 -155 45 -334 92 -179 48 -341 91 -360 97 -65 18 -525 127 -560 133 -19 3
-62 13 -95 21 -51 14 -437 95 -515 109 -14 2 -81 16 -150 30 -111 22 -251 48
-420 77 -30 5 -65 11 -76 13 -12 2 -39 7 -60 10 -22 3 -50 8 -64 11 -14 2 -43
7 -65 10 -22 3 -83 12 -135 21 -52 8 -106 17 -120 19 -45 6 -114 16 -145 21
-32 6 -74 11 -140 20 -22 2 -85 11 -140 19 -55 8 -122 17 -150 19 -27 3 -66 8
-85 10 -40 6 -356 42 -445 51 -33 3 -82 8 -110 10 -27 3 -93 9 -145 15 -52 5
-131 12 -175 16 -44 3 -96 7 -115 9 -19 2 -80 6 -135 10 -55 3 -122 8 -150 11
-27 2 -90 6 -140 9 -49 3 -124 7 -165 9 -41 3 -142 8 -225 12 -82 3 -188 8
-235 10 -102 5 -1438 13 -1442 9z"/>
</g>
</svg>
